# xmcd CD database file
#
# Track frame offsets:
#	150
#	19033
#	37283
#	65265
#	78432
#	105738
#	124785
#	140787
#	159168
#	177096
#	197476
#	220728
#	260547
#	281078
#	292208
#	312593
#
# Disc length: 4434 seconds
#
# Revision: 0
# Processed by: cddbd v1.5.1PL2 Copyright (c) Steve Scherf et al.
# Submitted via: Feurio! 1.68 - http://www.feurio.com
#
DISCID=f3115010
DTITLE=Stefan Diestelmann - Folk Blues Band
DYEAR=1900
DGENRE=Blues
TTITLE0=Reichsbahn-Blues
TTITLE1=Ma Babe
TTITLE2=Bernies Blues
TTITLE3=Blues Geschichte
TTITLE4=Für Ramsey L.
TTITLE5=Der Alte und die Kneipe
TTITLE6=Hof vom Prenzlauer Berg
TTITLE7=Alexanders Swing Time
TTITLE8=Blues von der guten Erziehung
TTITLE9=Torturas
TTITLE10=Bottleneck
TTITLE11=Flamenco
TTITLE12=Caledonia
TTITLE13=Blues für Kinder
TTITLE14=Blues für Memphis Slim
TTITLE15=Stormy Monday Blues
EXTD=
EXTT0=
EXTT1=
EXTT2=
EXTT3=
EXTT4=
EXTT5=
EXTT6=
EXTT7=
EXTT8=
EXTT9=
EXTT10=
EXTT11=
EXTT12=
EXTT13=
EXTT14=
EXTT15=
PLAYORDER=
